<svg xmlns="http://www.w3.org/2000/svg" viewBox="0 0 1000 1000" width="1000" height="1000"><rect x="0" y="0" width="1000" height="1000" rx="131" ry="131" fill="#27084e"></rect><path fill="#f7af21" fill-rule="evenodd" d="M496.9 135.7C500.8 119.5 497.7 119.3 501.8 136.6C505.9 153.9 516.3 217.4 521.6 239.3C526.9 261.2 528.5 258.9 533.4 267.9C538.3 276.8 544.9 286.0 550.9 292.9C556.9 299.7 560.3 303.1 569.6 308.8C579.0 314.4 586.4 320.3 607.1 326.6C627.9 332.9 679.9 342.4 694.2 346.4C708.5 350.4 700.2 348.7 692.9 350.5C685.5 352.4 665.2 354.2 650.0 357.7C634.8 361.2 614.9 366.6 601.8 371.6C588.7 376.6 579.3 382.6 571.4 387.7C563.5 392.7 560.8 394.4 554.5 401.8C548.1 409.2 538.9 422.0 533.4 432.1C527.9 442.3 526.8 442.2 521.3 462.5C515.7 482.8 504.1 539.1 500.0 553.8C495.9 568.5 500.3 566.4 496.4 550.9C492.5 535.4 482.2 481.1 476.6 460.7C471.0 440.3 467.9 437.8 463.0 428.6C458.2 419.3 453.7 412.5 447.3 405.4C441.0 398.2 434.1 391.8 425.0 385.9C415.9 380.0 405.7 374.5 392.9 369.8C380.1 365.1 363.0 361.0 348.2 357.7C333.4 354.4 311.2 352.0 304.0 350.0C296.9 348.0 294.7 348.5 305.4 345.8C316.0 343.0 351.5 337.4 367.9 333.4C384.2 329.4 393.8 325.8 403.6 322.0C413.4 318.2 419.2 315.7 426.8 310.5C434.4 305.4 443.1 297.6 449.1 291.1C455.1 284.6 458.2 281.0 463.0 271.4C467.9 261.9 472.8 256.5 478.4 233.9C484.0 211.3 493.0 151.9 496.9 135.7Z"></path><path fill="#FFFFFF" fill-rule="evenodd" d="M561.2 453.6C563.2 452.5 561.4 451.5 567.9 452.7C574.3 453.8 586.9 455.7 600.0 460.5C613.1 465.4 635.1 475.9 646.4 481.6C657.7 487.3 661.9 490.7 667.9 494.8C673.8 498.9 677.1 501.2 682.1 506.2C687.2 511.3 693.7 517.1 698.0 525.0C702.4 532.9 706.4 545.2 708.0 553.6C709.7 561.9 708.8 567.9 708.0 575.0C707.3 582.1 707.4 586.6 703.4 596.4C699.4 606.3 692.6 620.8 684.1 633.9C675.7 647.0 668.8 656.0 652.7 675.0C636.6 694.0 602.5 729.2 587.7 748.2C572.9 767.3 569.6 775.6 563.7 789.3C557.9 803.0 554.5 817.9 552.7 830.4C550.8 842.9 550.8 851.5 552.7 864.3C554.6 877.1 562.7 899.6 564.1 907.1C565.4 914.7 579.7 909.4 560.7 909.8C541.7 910.3 469.3 910.6 450.0 909.8C430.7 909.1 447.1 911.2 444.8 905.4C442.6 899.6 438.3 887.5 436.6 875.0C434.9 862.5 433.3 844.3 434.8 830.4C436.4 816.4 441.2 802.4 445.9 791.1C450.5 779.8 457.4 770.2 462.7 762.5C468.0 754.8 470.6 751.9 477.7 744.6C484.8 737.4 483.8 736.8 505.4 718.7C526.9 700.7 585.6 654.9 607.1 636.6C628.7 618.3 626.7 618.6 634.8 608.9C642.9 599.3 651.1 588.7 655.9 578.6C660.7 568.5 663.7 558.0 663.4 548.2C663.1 538.4 658.7 528.1 654.1 519.6C649.5 511.2 641.8 503.3 635.7 497.3C629.7 491.3 623.2 487.1 617.9 483.8C612.5 480.4 602.1 473.6 603.6 477.2C605.1 480.8 621.6 497.7 627.0 505.4C632.3 513.0 633.6 517.3 635.5 523.2C637.4 529.2 639.5 533.3 638.4 541.1C637.3 548.8 633.6 561.0 629.1 569.6C624.6 578.3 617.6 586.2 611.6 592.9C605.6 599.6 618.6 590.3 592.9 609.8C567.1 629.3 482.7 690.4 457.1 709.8C431.5 729.2 447.3 717.3 439.3 726.1C431.3 734.9 416.6 752.0 409.1 762.5C401.6 773.0 398.5 778.6 394.1 789.3C389.8 800.0 385.2 813.7 383.0 826.8C380.9 839.9 380.2 854.8 381.3 867.9C382.3 881.0 388.4 898.6 389.5 905.4C390.5 912.2 412.0 908.0 387.5 908.6C363.0 909.2 267.5 910.1 242.6 908.9C217.6 907.8 239.0 905.7 237.7 901.8C236.4 897.9 235.3 894.9 234.8 885.7C234.3 876.5 234.0 856.8 234.8 846.4C235.6 836.0 236.4 833.0 239.5 823.2C242.5 813.4 248.7 797.0 253.0 787.5C257.4 778.0 258.5 775.9 265.5 766.1C272.6 756.3 284.4 740.1 295.5 728.6C306.6 717.1 319.8 706.5 332.1 697.0C344.5 687.4 354.8 680.4 369.6 671.3C384.5 662.1 393.2 656.5 421.4 642.3C449.7 628.2 514.6 598.8 539.3 586.3C564.0 573.8 561.3 574.0 569.6 567.3C578.0 560.7 585.1 552.9 589.5 546.4C593.8 540.0 594.9 534.8 595.5 528.6C596.1 522.3 596.0 516.1 593.0 508.9C590.1 501.8 583.9 493.2 577.7 485.7C571.5 478.3 559.6 468.8 555.9 464.3C552.2 459.8 554.7 460.7 555.5 458.9C556.4 457.1 559.1 454.6 561.2 453.6Z"></path></svg>