<svg xmlns="http://www.w3.org/2000/svg" viewBox="0 0 1000 1000" width="1000" height="1000"><path fill="#FFFFFF" fill-rule="evenodd" d="M494.8 92.5C507.4 92.2 517.2 92.3 530.3 93.7C543.4 95.1 561.8 98.4 573.4 100.7C584.9 103.1 589.4 104.4 599.7 107.7C609.9 111.1 623.9 116.2 634.8 121.0C645.7 125.7 655.1 130.5 665.1 136.1C675.0 141.8 683.9 147.1 694.6 154.8C705.2 162.5 720.8 175.5 728.9 182.2C736.9 189.0 740.4 192.7 742.8 195.4C745.3 198.1 746.1 195.4 743.5 198.6C740.9 201.7 730.4 211.4 727.3 214.1C724.2 216.8 729.7 218.4 724.9 214.6C720.1 210.7 706.9 197.9 698.6 191.0C690.2 184.1 682.6 178.5 674.6 173.1C666.7 167.7 659.4 163.2 650.7 158.5C642.1 153.7 632.6 149.1 622.8 144.9C613.0 140.7 603.3 136.7 591.7 133.3C580.1 129.8 565.3 126.2 553.4 124.0C541.6 121.8 531.1 120.8 520.7 120.0C510.4 119.2 500.0 119.1 491.2 119.2C482.5 119.4 477.5 119.6 468.1 120.8C458.7 122.0 444.3 124.3 434.6 126.2C424.9 128.2 419.7 129.3 409.9 132.5C400.1 135.6 385.4 140.8 375.6 144.9C365.8 149.0 360.0 151.8 350.9 156.9C341.7 162.0 330.0 169.0 320.6 175.5C311.1 182.0 301.8 189.5 294.3 195.8C286.7 202.1 278.8 210.2 275.1 213.3C271.4 216.4 275.1 216.8 271.9 214.4C268.8 212.1 259.1 202.1 256.4 199.4C253.6 196.6 255.4 198.4 255.4 197.8C255.4 197.1 254.4 197.6 256.4 195.4C258.3 193.2 261.4 189.8 267.1 184.6C272.9 179.5 283.5 170.4 291.1 164.5C298.6 158.6 305.0 154.0 312.6 149.0C320.2 144.0 326.7 139.7 336.5 134.5C346.4 129.3 359.0 122.9 371.6 117.8C384.2 112.7 398.5 107.7 412.3 103.9C426.1 100.2 440.8 97.2 454.5 95.3C468.3 93.4 482.2 92.8 494.8 92.5ZM494.0 142.7C503.5 142.5 510.0 142.2 520.7 143.1C531.4 144.1 547.0 146.4 558.2 148.6C569.4 150.8 577.8 153.1 587.7 156.4C597.7 159.6 609.3 164.2 618.0 168.0C626.8 171.8 630.8 173.5 640.4 179.2C649.9 184.8 665.1 194.4 675.4 202.0C685.8 209.5 695.8 218.5 702.6 224.5C709.3 230.4 713.4 235.0 715.7 237.6C718.0 240.2 716.9 238.8 716.2 240.0C715.5 241.2 712.5 244.1 711.3 244.9C710.1 245.7 712.9 248.5 708.9 245.1C704.9 241.7 696.3 232.0 687.4 224.5C678.5 217.0 664.9 206.7 655.5 200.2C646.1 193.8 640.7 190.6 630.8 185.6C620.8 180.5 605.7 173.8 595.7 169.9C585.7 166.0 580.0 164.5 571.0 162.1C561.9 159.8 551.6 157.5 541.5 155.9C531.4 154.3 519.3 153.2 510.4 152.7C501.5 152.2 495.9 152.3 488.0 152.7C480.2 153.1 471.7 153.9 463.3 155.1C454.9 156.3 447.9 157.3 437.8 159.7C427.7 162.2 412.3 166.7 402.7 169.9C393.1 173.2 387.7 175.8 380.4 179.2C373.1 182.6 365.5 186.6 358.9 190.4C352.2 194.1 347.0 197.3 340.5 201.8C334.0 206.3 328.1 210.2 319.8 217.3C311.4 224.4 295.6 239.8 290.3 244.4C285.0 249.0 289.1 245.5 287.9 244.9C286.6 244.3 283.7 241.9 282.9 240.8C282.0 239.8 278.8 242.8 282.9 238.4C286.9 234.1 297.4 223.0 307.0 214.9C316.6 206.8 329.3 197.2 340.5 189.9C351.7 182.6 363.0 176.5 374.0 171.2C385.0 165.9 397.1 161.4 406.7 158.0C416.3 154.6 421.9 153.0 431.4 150.8C441.0 148.6 453.7 146.1 464.1 144.7C474.5 143.4 484.6 143.0 494.0 142.7ZM498.3 177.0C499.7 165.9 499.6 176.4 500.0 176.6C500.4 176.9 499.1 166.3 500.4 178.6C501.7 190.9 505.2 231.9 507.6 250.4C509.9 268.9 511.9 278.7 514.4 289.5C517.0 300.2 520.4 308.9 522.9 315.0C525.4 321.1 527.6 323.2 529.6 326.2C531.6 329.1 532.4 330.3 534.7 332.5C536.9 334.8 537.8 336.5 543.1 339.6C548.3 342.8 557.5 348.3 566.2 351.6C574.8 354.9 584.7 357.2 594.9 359.3C605.1 361.3 622.0 362.6 627.2 363.6C632.4 364.7 633.0 364.2 626.0 365.5C619.0 366.9 596.2 369.4 585.3 371.9C574.4 374.3 567.3 377.2 560.6 380.1C554.0 383.0 549.2 386.7 545.5 389.2C541.7 391.7 541.5 391.4 538.3 395.1C535.0 398.8 529.4 405.7 526.1 411.5C522.8 417.3 521.0 421.1 518.4 429.8C515.9 438.6 512.8 451.9 510.8 464.1C508.7 476.3 507.8 483.2 506.0 503.2C504.2 523.2 501.3 570.8 500.0 584.3C498.7 597.9 498.7 584.6 498.4 584.3C498.1 584.1 498.9 594.7 498.0 582.9C497.1 571.1 494.8 532.4 493.2 513.6C491.6 494.7 490.5 483.3 488.4 469.7C486.4 456.1 483.6 442.2 480.8 432.2C478.0 422.2 475.1 416.2 471.5 409.9C468.0 403.6 464.7 399.2 459.3 394.3C454.0 389.5 445.8 384.3 439.4 380.9C433.0 377.6 426.6 375.9 421.1 374.1C415.5 372.3 414.1 371.7 405.9 370.3C397.7 368.8 377.7 366.3 372.0 365.2C366.4 364.1 371.7 364.0 372.0 363.6C372.3 363.3 371.0 363.6 374.0 363.2C377.0 362.9 382.8 362.8 390.0 361.6C397.1 360.5 408.8 358.5 417.1 356.4C425.3 354.2 433.5 351.1 439.4 348.7C445.2 346.3 448.4 344.4 452.2 342.0C455.9 339.7 458.7 337.6 461.7 334.5C464.8 331.5 467.6 328.2 470.4 323.8C473.2 319.3 475.9 314.6 478.4 307.8C480.9 301.0 483.0 293.9 485.2 283.1C487.5 272.3 489.5 260.9 491.6 243.2C493.8 225.5 496.9 188.1 498.3 177.0ZM603.9 260.0C604.7 258.4 604.9 258.1 605.9 260.0C606.9 261.8 608.0 267.9 609.8 271.1C611.6 274.4 614.4 277.5 616.4 279.5C618.5 281.5 619.7 282.2 622.0 283.3C624.4 284.5 629.2 285.5 630.6 286.3C632.0 287.0 632.0 287.1 630.6 287.9C629.2 288.6 624.8 289.2 622.0 290.8C619.2 292.4 615.8 295.1 613.6 297.4C611.5 299.7 610.4 301.8 609.0 304.6C607.6 307.4 607.4 315.6 605.3 314.4C603.1 313.2 599.0 301.4 596.1 297.4C593.2 293.5 590.5 292.4 587.7 290.8C584.9 289.2 580.6 288.6 579.1 287.9C577.7 287.1 577.6 287.1 579.1 286.3C580.7 285.4 585.7 284.3 588.5 282.7C591.3 281.1 594.1 278.9 596.1 276.7C598.1 274.5 599.4 272.3 600.7 269.5C602.0 266.7 603.0 261.6 603.9 260.0ZM257.3 267.1C261.4 262.6 258.8 266.4 260.0 266.9C261.1 267.4 263.4 269.2 264.3 270.3C265.1 271.4 268.9 267.9 265.0 273.5C261.1 279.1 247.5 294.7 240.9 303.8C234.3 313.0 230.3 320.0 225.4 328.5C220.6 337.1 216.3 344.9 211.9 354.9C207.4 364.8 202.4 377.1 198.6 388.4C194.9 399.7 191.6 412.7 189.2 422.6C186.9 432.6 185.9 438.7 184.6 448.2C183.3 457.6 182.0 469.4 181.4 479.3C180.9 489.1 180.5 494.7 181.4 507.2C182.3 519.7 185.1 542.0 187.0 554.2C188.9 566.5 190.7 571.9 193.1 580.5C195.4 589.2 197.9 597.3 201.0 606.1C204.2 614.8 207.8 624.3 211.9 633.2C215.9 642.1 220.3 650.6 225.4 659.5C230.5 668.4 236.0 677.4 242.5 686.6C249.0 695.8 261.0 709.3 264.7 714.5C268.3 719.7 265.3 716.5 264.4 717.7C263.4 718.9 261.0 721.7 259.2 721.6C257.3 721.5 258.6 723.7 253.2 716.9C247.8 710.1 234.0 692.2 226.6 681.0C219.1 669.9 213.1 658.3 208.7 649.9C204.3 641.5 203.6 640.0 199.9 630.8C196.3 621.6 189.9 604.7 186.7 594.9C183.4 585.1 182.7 582.0 180.5 571.8C178.3 561.5 175.0 544.8 173.4 533.5C171.9 522.2 171.5 512.4 171.1 504.0C170.7 495.6 170.5 492.4 171.1 483.3C171.6 474.1 172.8 459.6 174.2 449.0C175.7 438.3 176.9 430.9 179.7 419.5C182.4 408.0 187.2 391.1 190.7 380.4C194.2 369.6 196.5 364.2 200.7 354.9C204.9 345.6 210.1 334.7 215.9 324.6C221.6 314.5 228.4 303.8 235.3 294.3C242.2 284.7 253.2 271.7 257.3 267.1ZM737.8 267.1C739.1 266.6 737.8 263.7 741.6 267.6C745.4 271.6 755.4 284.2 760.5 291.1C765.7 297.9 768.3 301.7 772.6 308.6C777.0 315.5 782.1 324.0 786.5 332.5C791.0 341.0 795.1 349.3 799.3 359.6C803.5 370.0 808.6 384.8 811.7 394.7C814.8 404.7 816.0 410.2 817.9 419.5C819.9 428.8 822.1 441.3 823.4 450.6C824.7 459.9 825.4 465.0 825.8 475.3C826.2 485.5 826.2 501.7 825.8 512.0C825.4 522.2 824.9 526.3 823.4 536.7C821.8 547.0 819.1 562.5 816.3 574.2C813.6 585.9 810.8 595.6 806.9 606.9C803.0 618.2 797.4 632.0 792.9 641.9C788.4 651.9 785.8 657.1 780.1 666.7C774.5 676.2 765.2 690.6 758.9 699.4C752.7 708.1 746.1 715.5 742.8 719.3C739.5 723.1 740.8 722.3 739.2 721.9C737.7 721.5 734.4 718.1 733.4 716.9C732.4 715.7 730.2 718.9 733.4 714.5C736.6 710.1 746.1 699.9 752.7 690.6C759.3 681.3 767.5 668.3 773.0 658.7C778.5 649.1 781.4 643.1 785.7 633.2C790.1 623.2 795.6 608.7 799.0 598.9C802.3 589.0 803.6 584.5 806.0 574.2C808.3 563.8 811.4 547.0 813.0 536.7C814.6 526.3 815.0 522.3 815.4 512.0C815.8 501.6 815.9 485.8 815.4 474.5C814.9 463.2 813.4 452.7 812.2 444.2C811.0 435.7 811.1 434.3 808.4 423.4C805.6 412.5 799.5 390.4 795.8 378.8C792.0 367.2 789.3 361.9 785.7 354.1C782.2 346.2 779.8 340.8 774.6 331.7C769.3 322.7 761.2 309.5 754.3 299.8C747.4 290.1 736.9 278.3 733.4 273.5C729.9 268.7 732.7 272.2 733.4 271.1C734.1 270.1 736.4 267.7 737.8 267.1ZM190.1 267.9C193.1 263.7 191.6 267.2 192.2 267.2C192.8 267.3 190.8 265.2 193.8 268.3C196.7 271.5 209.6 279.3 209.8 286.3C210.0 293.3 199.8 301.8 195.1 310.2C190.4 318.6 185.9 327.1 181.6 336.5C177.2 346.0 172.4 358.2 169.1 366.8C165.9 375.5 164.2 380.6 162.0 388.4C159.7 396.1 157.9 402.2 155.7 413.1C153.5 424.0 150.2 443.8 148.7 453.7C147.3 463.7 147.4 462.4 147.1 472.9C146.9 483.4 146.7 505.3 147.1 516.7C147.5 528.2 148.4 533.0 149.5 541.5C150.7 550.0 152.2 558.6 154.1 567.8C156.1 577.0 158.9 588.5 161.2 596.5C163.4 604.5 165.1 608.9 167.5 615.6C170.0 622.4 172.5 629.2 176.0 637.2C179.5 645.1 183.0 653.1 188.8 663.5C194.5 673.8 207.0 692.8 210.4 699.4C213.9 705.9 212.1 699.5 209.3 702.6C206.6 705.6 196.8 715.2 193.8 717.5C190.8 719.7 193.0 718.1 191.5 716.1C189.9 714.2 188.5 712.5 184.3 705.7C180.1 699.0 171.7 685.3 166.4 675.4C161.2 665.6 156.8 655.9 152.9 646.7C148.9 637.6 145.8 629.2 142.8 620.4C139.8 611.6 137.3 603.7 134.8 594.1C132.4 584.5 130.2 577.1 128.0 563.0C125.8 548.9 122.7 524.1 121.6 509.6C120.5 495.1 121.2 486.4 121.6 476.1C122.0 465.7 122.9 456.8 124.0 447.4C125.1 437.9 126.1 430.5 128.3 419.5C130.5 408.4 134.3 392.1 137.2 381.2C140.2 370.3 142.1 364.6 146.0 354.1C149.9 343.6 156.1 328.4 160.8 318.2C165.6 307.9 169.5 301.0 174.4 292.7C179.3 284.3 187.1 272.2 190.1 267.9ZM805.9 267.9C808.9 265.4 807.5 267.1 808.6 268.0C809.7 269.0 808.4 266.5 812.5 273.5C816.7 280.6 827.7 298.8 833.6 310.2C839.4 321.6 843.5 331.9 847.6 342.1C851.7 352.3 855.2 362.8 858.0 371.6C860.7 380.4 862.0 385.0 864.2 394.7C866.4 404.4 869.4 418.0 871.2 429.8C873.0 441.7 874.4 453.0 875.2 465.7C876.0 478.5 876.8 491.1 876.0 506.4C875.2 521.7 872.5 543.5 870.4 557.4C868.3 571.4 866.3 579.3 863.6 590.1C860.8 600.9 858.9 608.7 854.0 622.0C849.0 635.3 840.4 656.3 833.9 669.9C827.4 683.4 819.4 695.8 814.9 703.3C810.4 710.9 808.8 713.0 806.9 715.3C805.1 717.7 806.7 719.3 803.8 717.5C801.0 715.6 792.6 707.2 789.9 704.1C787.1 701.1 784.8 704.9 787.3 699.4C789.8 693.8 799.9 679.3 804.9 670.7C809.8 662.0 812.1 658.4 816.8 647.5C821.6 636.6 828.7 620.0 833.4 605.3C838.1 590.5 842.1 574.3 844.9 559.0C847.7 543.7 849.5 528.2 850.5 513.6C851.4 498.9 850.7 481.3 850.5 471.3C850.2 461.3 849.8 461.2 848.9 453.7C848.0 446.3 847.0 437.3 844.9 426.6C842.8 416.0 839.3 400.6 836.4 390.0C833.6 379.3 830.9 371.7 827.7 362.8C824.4 353.9 820.5 344.6 816.8 336.5C813.2 328.4 810.3 322.6 805.7 314.2C801.0 305.8 791.6 291.5 789.1 286.3C786.6 281.1 787.9 286.2 790.7 283.1C793.5 280.0 802.9 270.5 805.9 267.9ZM661.8 308.6C662.5 307.5 663.0 307.2 663.9 308.6C664.8 310.1 666.0 314.9 667.2 317.4C668.5 319.8 668.6 321.2 671.5 323.4C674.3 325.5 682.3 328.7 684.4 330.1C686.6 331.5 685.6 331.0 684.4 331.7C683.2 332.4 679.4 333.0 677.0 334.4C674.7 335.7 672.0 337.9 670.3 339.7C668.5 341.5 667.6 343.1 666.4 345.3C665.3 347.5 664.2 351.8 663.5 353.1C662.7 354.3 662.7 354.4 661.9 352.9C661.0 351.3 659.7 346.2 658.5 343.7C657.2 341.2 657.0 340.1 654.2 338.1C651.4 336.1 643.8 333.1 641.7 331.7C639.7 330.4 640.6 330.8 641.7 330.1C642.8 329.4 646.1 328.8 648.3 327.5C650.6 326.2 653.2 324.3 655.1 322.2C657.0 320.1 658.6 317.3 659.7 315.0C660.8 312.7 661.1 309.7 661.8 308.6ZM285.2 739.2C286.4 738.5 284.4 736.5 287.9 739.5C291.4 742.5 300.2 751.8 306.2 757.2C312.3 762.6 321.1 769.1 324.2 771.9C327.3 774.8 325.3 772.9 324.8 774.3C324.3 775.7 322.3 779.4 321.4 780.4C320.4 781.5 321.8 782.5 319.0 780.6C316.2 778.7 311.0 774.8 304.6 769.1C298.2 763.5 284.7 750.7 280.7 746.5C276.7 742.3 279.7 745.2 280.5 744.0C281.2 742.8 284.0 740.0 285.2 739.2ZM711.2 739.2C716.0 735.2 712.5 738.8 713.7 739.6C714.9 740.4 717.8 742.8 718.4 744.0C719.0 745.3 721.7 742.8 717.3 747.2C712.9 751.7 699.8 764.1 692.2 770.7C684.5 777.4 677.7 782.4 671.5 787.0C665.2 791.6 662.7 793.5 654.7 798.2C646.7 802.9 632.8 810.7 623.6 815.2C614.4 819.8 608.7 822.0 599.7 825.3C590.6 828.5 577.4 832.5 569.4 834.7C561.4 836.8 555.0 837.9 551.8 838.2C548.6 838.5 550.3 838.1 550.2 836.7C550.2 835.4 551.1 831.7 551.8 830.1C552.4 828.6 550.0 829.0 554.2 827.7C558.5 826.3 569.6 824.3 577.4 822.1C585.1 819.8 593.0 817.0 600.5 814.1C607.9 811.2 614.0 808.9 622.0 804.9C630.0 800.9 637.8 797.1 648.3 790.2C658.8 783.3 674.5 772.0 685.0 763.6C695.5 755.1 706.4 743.2 711.2 739.2ZM269.9 767.9C279.5 771.5 305.7 792.5 313.0 803.0C320.3 813.5 314.6 826.8 313.6 830.9C312.6 835.1 311.3 830.7 307.0 827.8C302.7 825.0 293.7 818.4 287.9 814.0C282.0 809.5 277.4 805.9 271.9 801.0C266.4 796.2 257.7 787.9 254.9 784.7C252.2 781.4 253.1 784.3 255.6 781.5C258.1 778.7 260.4 764.4 269.9 767.9ZM727.0 768.7C733.6 763.7 727.7 766.9 730.5 769.1C733.2 771.4 741.4 779.6 743.6 782.3C745.8 785.0 748.3 780.7 743.6 785.5C738.9 790.2 726.0 802.3 715.3 810.8C704.6 819.3 691.8 828.7 679.4 836.4C667.1 844.2 652.6 851.9 641.1 857.5C629.7 863.1 622.8 865.9 610.8 869.9C598.9 874.0 578.1 879.4 569.4 881.7C560.6 884.1 560.7 883.9 558.2 884.0C555.7 884.0 556.0 885.2 554.5 882.0C552.9 878.7 550.0 867.8 549.0 864.4C548.1 861.1 548.5 862.8 548.7 862.0C548.9 861.3 545.7 861.2 550.2 859.9C554.7 858.7 567.1 856.8 575.8 854.6C584.4 852.4 593.2 849.9 602.1 846.8C611.0 843.7 620.7 839.8 629.2 836.0C637.7 832.2 642.9 830.1 653.1 824.0C663.3 817.9 678.3 808.8 690.6 799.6C702.9 790.4 720.3 773.8 727.0 768.7Z"></path><path fill="#FFFFFF" fill-rule="evenodd" d="M223.8 190.6C225.3 187.3 224.6 187.9 225.7 190.0C226.8 192.1 227.9 198.6 230.2 203.3C232.5 208.1 236.1 214.3 239.6 218.5C243.1 222.7 246.6 225.9 251.2 228.8C255.7 231.7 264.4 234.6 266.9 236.0C269.5 237.5 269.2 236.0 266.3 237.4C263.5 238.9 253.7 242.6 249.6 244.9C245.5 247.2 245.0 247.8 242.0 251.2C239.1 254.6 234.5 260.6 231.8 265.6C229.1 270.5 227.0 278.3 225.7 280.9C224.4 283.5 225.3 283.5 224.1 280.9C222.8 278.3 220.6 270.1 218.3 265.6C215.9 261.0 213.3 257.2 210.1 253.6C207.0 250.0 203.8 246.9 199.4 244.1C194.9 241.3 185.8 238.3 183.2 236.8C180.6 235.4 181.3 236.6 183.8 235.2C186.4 233.9 194.5 231.2 198.6 228.8C202.6 226.4 205.2 224.2 208.1 221.0C211.1 217.8 213.7 214.8 216.3 209.7C219.0 204.7 222.2 193.9 223.8 190.6ZM772.1 191.4C773.7 188.5 772.9 188.9 774.1 191.4C775.4 193.9 777.4 202.0 779.7 206.5C781.9 211.1 784.6 215.1 787.5 218.5C790.3 221.9 792.0 224.3 796.7 227.2C801.3 230.1 815.1 233.1 815.2 236.0C815.3 239.0 801.8 242.2 797.4 244.9C793.1 247.6 791.6 249.2 789.1 252.0C786.5 254.8 784.6 256.7 782.1 261.6C779.5 266.4 775.2 278.2 773.5 281.3C771.8 284.4 773.1 282.8 771.9 280.3C770.8 277.8 768.9 270.8 766.6 266.3C764.3 261.9 761.1 257.2 758.0 253.6C754.9 250.0 752.4 247.5 748.0 244.7C743.6 241.9 734.1 238.4 731.5 236.8C728.8 235.3 729.3 236.9 732.1 235.4C734.8 234.0 743.8 230.5 748.0 228.0C752.2 225.4 754.3 223.3 757.2 220.1C760.0 216.9 762.5 213.7 765.0 208.9C767.5 204.1 770.6 194.3 772.1 191.4ZM352.1 418.7C355.7 417.4 354.2 417.9 354.9 418.1C355.5 418.2 358.9 417.0 355.9 419.5C352.8 421.9 341.2 428.5 336.5 432.6C331.8 436.7 329.4 440.4 327.5 444.2C325.6 448.0 325.0 452.2 325.0 455.3C324.9 458.5 326.2 461.1 327.2 463.3C328.2 465.6 329.2 466.8 331.2 468.9C333.1 471.0 336.0 473.8 338.9 476.0C341.8 478.2 342.0 479.0 348.5 481.9C355.0 484.8 366.3 489.9 378.0 493.5C389.7 497.2 402.6 500.3 418.7 503.7C434.7 507.2 464.9 512.1 474.5 514.1C484.1 516.1 475.9 514.4 476.3 515.9C476.8 517.5 476.7 517.8 477.3 523.1C477.8 528.4 479.5 543.2 479.7 547.8C479.9 552.5 488.9 552.6 478.5 550.9C468.0 549.3 434.7 542.4 417.1 538.0C399.4 533.7 385.8 529.5 372.4 524.6C359.0 519.8 344.9 513.1 336.5 509.0C328.1 504.9 326.8 503.4 322.2 499.9C317.6 496.4 312.4 491.9 309.0 488.0C305.6 484.2 303.6 480.2 302.0 476.9C300.4 473.6 299.8 471.2 299.4 468.1C299.1 465.0 299.2 461.9 300.1 458.5C301.0 455.2 303.3 450.7 304.7 448.2C306.1 445.6 305.7 445.9 308.2 443.4C310.7 440.9 315.6 436.1 319.8 433.1C324.0 430.1 328.0 428.0 333.3 425.6C338.7 423.2 348.5 419.9 352.1 418.7ZM520.9 523.1C525.6 523.0 537.1 525.7 547.0 528.1C557.0 530.6 569.6 533.9 580.5 537.6C591.4 541.2 602.6 545.5 612.4 550.0C622.3 554.5 632.5 560.3 639.6 564.7C646.6 569.0 649.5 571.4 654.7 576.2C659.9 580.9 666.2 587.1 670.6 593.3C674.9 599.5 678.6 607.0 680.9 613.2C683.3 619.5 684.1 625.9 684.6 630.8C685.1 635.7 684.7 638.0 683.8 642.7C682.9 647.5 681.2 654.2 679.3 659.5C677.5 664.8 675.3 669.6 672.5 674.6C669.7 679.7 666.8 684.2 662.6 689.8C658.4 695.4 652.0 702.9 647.1 708.1C642.2 713.4 643.7 712.5 633.2 721.3C622.6 730.1 595.4 751.4 583.7 761.2C572.1 770.9 569.2 773.7 563.4 779.9C557.6 786.1 552.8 792.4 548.7 798.2C544.6 804.1 541.4 809.9 538.8 815.0C536.3 820.0 534.9 824.3 533.6 828.5C532.2 832.8 531.2 834.4 530.7 840.5C530.2 846.6 529.6 857.8 530.7 865.2C531.8 872.7 534.7 879.7 537.2 885.2C539.8 890.6 542.8 894.2 545.9 897.9C548.9 901.6 554.1 905.6 555.6 907.5C557.1 909.4 555.4 908.9 555.0 909.2C554.7 909.6 559.0 909.4 553.4 909.5C547.8 909.5 532.3 910.0 521.5 909.5C510.8 909.0 499.5 907.7 488.8 906.3C478.2 904.9 467.6 903.0 457.7 900.9C447.9 898.8 434.9 895.2 429.8 893.5C424.8 891.9 428.6 893.7 427.5 890.7C426.4 887.8 423.9 881.7 423.0 875.6C422.2 869.5 421.4 861.4 422.2 854.1C423.1 846.8 425.0 839.6 428.1 831.7C431.3 823.9 436.3 814.5 441.1 807.0C445.8 799.6 450.8 793.5 456.5 787.1C462.2 780.6 467.0 775.5 475.3 768.3C483.6 761.2 487.5 757.0 506.4 744.1C525.3 731.2 573.0 701.5 588.5 691.1C604.1 680.8 595.4 686.2 599.7 682.2C604.0 678.3 610.6 671.8 614.4 667.5C618.3 663.1 620.5 659.8 622.7 656.3C625.0 652.8 626.3 650.6 627.8 646.7C629.4 642.9 631.5 638.4 632.0 633.2C632.5 628.0 631.5 620.0 630.7 615.6C629.9 611.2 628.9 610.2 627.0 606.9C625.1 603.5 622.4 599.3 619.2 595.7C616.0 592.1 610.8 587.8 607.7 585.4C604.5 583.0 601.8 581.8 600.5 581.1C599.1 580.5 597.6 579.0 599.5 581.3C601.3 583.6 608.8 591.4 611.6 594.9C614.3 598.4 614.5 598.5 615.9 602.1C617.3 605.7 619.5 611.6 620.0 616.4C620.5 621.2 620.4 625.3 618.7 630.8C617.1 636.2 613.4 643.7 610.0 649.1C606.5 654.5 602.9 658.5 598.1 663.1C593.3 667.7 588.0 672.0 581.3 676.8C574.7 681.6 569.9 685.1 558.2 692.1C546.5 699.1 524.3 711.2 511.2 719.1C498.0 726.9 488.2 733.1 479.3 739.3C470.4 745.5 464.7 750.1 457.7 756.4C450.8 762.6 443.9 769.2 437.4 776.7C430.9 784.2 423.3 794.8 418.7 801.4C414.2 808.1 412.7 811.4 410.1 816.6C407.6 821.8 405.4 826.4 403.6 832.5C401.8 838.6 399.9 847.6 399.1 853.3C398.4 859.0 398.7 861.9 399.1 866.8C399.6 871.8 401.7 880.1 401.9 882.9C402.1 885.7 401.2 883.9 400.3 883.8C399.4 883.7 401.0 884.3 396.3 882.2C391.7 880.1 380.6 875.8 372.4 871.1C364.2 866.3 353.3 859.3 346.9 853.7C340.5 848.0 336.9 842.7 333.9 837.3C330.9 831.9 329.8 826.0 328.9 821.4C328.1 816.7 328.7 812.6 328.9 809.4C329.2 806.2 328.8 807.0 330.4 802.2C332.0 797.4 334.5 788.1 338.7 780.7C342.8 773.3 349.8 764.0 355.3 757.6C360.8 751.1 365.2 747.3 371.6 742.0C378.1 736.7 385.8 731.0 393.9 725.8C402.0 720.5 398.1 721.3 420.3 710.3C442.5 699.3 505.1 671.1 527.1 659.7C549.2 648.4 546.0 647.8 552.6 642.3C559.3 636.9 563.9 630.7 566.9 626.8C569.9 622.9 569.9 621.6 570.9 618.8C571.9 616.0 573.0 613.2 573.0 610.0C573.0 606.9 571.9 602.6 570.9 599.7C569.9 596.8 568.9 595.1 566.9 592.5C564.9 589.9 562.1 586.8 559.0 584.1C556.0 581.5 555.8 580.4 548.6 576.6C541.5 572.8 521.3 569.4 516.3 561.4C511.4 553.4 518.0 535.1 518.7 528.7C519.5 522.3 516.1 523.2 520.9 523.1ZM224.0 703.3C224.9 701.5 224.9 701.6 225.8 703.3C226.7 705.1 227.4 709.6 229.4 713.7C231.5 717.8 234.9 724.1 238.0 728.1C241.1 732.0 243.3 734.5 248.0 737.6C252.8 740.6 266.1 743.6 266.5 746.4C266.9 749.2 254.7 751.7 250.4 754.3C246.1 756.9 243.9 758.6 240.8 762.1C237.7 765.5 234.3 770.6 231.8 775.1C229.4 779.7 227.3 787.0 226.2 789.5C225.0 792.0 226.2 792.6 224.9 790.2C223.5 787.8 220.6 779.6 218.1 775.1C215.6 770.6 213.4 766.7 210.1 763.2C206.9 759.6 202.9 756.3 198.6 753.7C194.2 751.0 186.3 748.6 184.0 747.2C181.7 745.9 181.8 747.1 184.6 745.6C187.4 744.1 196.6 741.0 201.0 738.4C205.3 735.7 207.7 733.6 210.9 729.7C214.2 725.7 218.2 718.9 220.3 714.5C222.5 710.1 223.1 705.2 224.0 703.3ZM772.3 703.3C773.7 700.8 773.0 701.5 774.2 704.1C775.4 706.8 777.4 714.9 779.7 719.3C781.9 723.7 784.8 727.4 787.5 730.5C790.2 733.5 791.5 735.1 795.9 737.7C800.2 740.4 813.3 743.6 813.6 746.4C813.9 749.2 801.8 751.7 797.4 754.5C793.1 757.3 790.3 760.0 787.5 763.2C784.6 766.3 782.8 769.0 780.5 773.5C778.1 778.1 774.9 787.7 773.5 790.4C772.1 793.1 773.2 792.6 771.9 789.9C770.6 787.2 768.0 778.6 765.8 774.3C763.6 770.0 761.6 767.2 758.8 764.0C755.9 760.8 753.3 757.9 748.8 755.1C744.3 752.3 734.6 748.8 731.9 747.2C729.1 745.6 729.6 747.1 732.5 745.6C735.3 744.1 744.6 740.9 748.8 738.4C753.1 735.8 755.1 733.6 758.0 730.5C760.8 727.3 763.4 723.8 765.8 719.3C768.2 714.8 770.9 705.9 772.3 703.3Z"></path></svg>